<?xml version="1.0" encoding="utf-8"?>
<!-- Generator: Adobe Illustrator 17.0.0, SVG Export Plug-In . SVG Version: 6.00 Build 0)  -->
<!DOCTYPE svg PUBLIC "-//W3C//DTD SVG 1.0//EN" "http://www.w3.org/TR/2001/REC-SVG-20010904/DTD/svg10.dtd">
<svg version="1.0" id="Layer_1" xmlns="http://www.w3.org/2000/svg" xmlns:xlink="http://www.w3.org/1999/xlink" x="0px" y="0px"
	 width="110.72px" height="25.95px" viewBox="0 0 110.72 25.95" enable-background="new 0 0 110.72 25.95" xml:space="preserve">
<g>
	<path fill="#FFFFFF" d="M8.606,9.373v10.489H4.342V5.496h5.471c1.68,0,3.004,0.441,3.974,1.325
		c0.969,0.883,1.454,2.035,1.454,3.457c0,1.464-0.639,2.685-1.917,3.661l2.477,5.923h-4.502l-2.067-4.631v-3.683h0.344
		c0.905,0,1.357-0.388,1.357-1.163c0-0.675-0.524-1.012-1.572-1.012H8.606z"/>
	<path fill="#FFFFFF" d="M27.237,15.231h-5.966c-0.101-0.287-0.15-0.574-0.15-0.861c0-0.316,0.064-0.646,0.194-0.991h2.003
		c-0.129-0.79-0.567-1.185-1.314-1.185c-0.474,0-0.869,0.208-1.185,0.625c-0.316,0.417-0.474,0.955-0.474,1.615
		c0,0.675,0.15,1.231,0.452,1.669c0.301,0.438,0.689,0.657,1.163,0.657c0.402,0,0.782-0.201,1.142-0.603l2.24,2.714
		c-1.034,0.818-2.197,1.228-3.489,1.228c-1.537,0-2.839-0.527-3.909-1.583c-1.07-1.055-1.604-2.358-1.604-3.909
		c0-1.536,0.531-2.833,1.594-3.888c1.062-1.056,2.383-1.583,3.963-1.583c1.507,0,2.782,0.513,3.823,1.54
		c1.041,1.026,1.562,2.301,1.562,3.823C27.28,14.556,27.266,14.8,27.237,15.231z"/>
	<path fill="#FFFFFF" d="M34.689,15.963v4.049c-0.288,0.057-0.582,0.086-0.883,0.086c-1.58,0-2.897-0.527-3.952-1.583
		c-1.055-1.055-1.583-2.358-1.583-3.909c0-1.508,0.535-2.796,1.604-3.866c1.07-1.069,2.358-1.604,3.866-1.604
		c1.694,0,3.033,0.495,4.017,1.486c0.983,0.991,1.475,2.348,1.475,4.071v5.169h-3.941v-4.889c0-0.56-0.137-1.001-0.409-1.325
		c-0.273-0.323-0.632-0.485-1.077-0.485c-0.417,0-0.775,0.155-1.077,0.463c-0.302,0.309-0.452,0.678-0.452,1.109
		c0,0.431,0.136,0.786,0.409,1.066c0.272,0.28,0.631,0.42,1.077,0.42C34.093,16.222,34.402,16.136,34.689,15.963z"/>
	<path fill="#FFFFFF" d="M48.108,9.373v4.135c-0.618,0-1.02,0.108-1.206,0.323c-0.187,0.215-0.302,0.582-0.345,1.099
		c-0.302,3.288-2.132,4.932-5.492,4.932h-0.539v-4.157c0.747,0,1.256-0.133,1.529-0.398c0.272-0.266,0.431-0.729,0.474-1.39
		c0.057-0.991,0.14-1.676,0.248-2.057c0.108-0.38,0.352-0.775,0.732-1.185s0.847-0.729,1.4-0.958s1.217-0.345,1.993-0.345H48.108z"
		/>
	<path fill="#FFFFFF" d="M48.775,14.628c0-1.493,0.542-2.782,1.626-3.866c1.084-1.084,2.373-1.626,3.866-1.626
		c1.493,0,2.782,0.542,3.867,1.626c1.084,1.084,1.626,2.373,1.626,3.866c0,1.494-0.539,2.778-1.616,3.855
		c-1.076,1.077-2.369,1.615-3.876,1.615s-2.8-0.539-3.877-1.615C49.314,17.406,48.775,16.122,48.775,14.628z M52.674,14.628
		c0,0.431,0.154,0.801,0.463,1.109c0.309,0.309,0.686,0.463,1.131,0.463c0.445,0,0.822-0.154,1.131-0.463
		c0.309-0.309,0.463-0.679,0.463-1.109c0-0.445-0.154-0.822-0.463-1.131c-0.309-0.309-0.686-0.463-1.131-0.463
		c-0.445,0-0.822,0.154-1.131,0.463C52.828,13.806,52.674,14.183,52.674,14.628z"/>
	<path fill="#FFFFFF" d="M70.766,19.862h-3.92v-5.945c0-0.603-0.251-0.904-0.754-0.904c-0.488,0-0.732,0.301-0.732,0.904v5.945
		h-3.941v-5.858c0-1.364,0.452-2.517,1.356-3.457c0.905-0.94,2.011-1.411,3.317-1.411c1.436,0,2.574,0.456,3.414,1.368
		c0.84,0.912,1.26,2.179,1.26,3.801V19.862z"/>
	<path fill="#FFFFFF" d="M76.775,5.496v8.637c0,1.393,0.503,2.089,1.508,2.089c0.431,0,0.794-0.147,1.088-0.441
		c0.294-0.294,0.441-0.649,0.441-1.066c0-0.431-0.133-0.786-0.398-1.066s-0.592-0.42-0.979-0.42c-0.359,0-0.711,0.122-1.056,0.366
		V9.243c0.445-0.043,0.797-0.064,1.056-0.064c1.465,0,2.728,0.535,3.791,1.604c1.062,1.07,1.594,2.352,1.594,3.845
		c0,1.522-0.539,2.814-1.616,3.877c-1.076,1.063-2.397,1.594-3.963,1.594c-1.551,0-2.84-0.542-3.866-1.626
		c-1.026-1.084-1.54-2.488-1.54-4.211V5.496H76.775z"/>
	<path fill="#FFFFFF" d="M84.938,14.628c0-1.493,0.542-2.782,1.627-3.866c1.084-1.084,2.372-1.626,3.866-1.626
		c1.493,0,2.781,0.542,3.866,1.626c1.084,1.084,1.626,2.373,1.626,3.866c0,1.494-0.539,2.778-1.615,3.855
		c-1.077,1.077-2.37,1.615-3.877,1.615c-1.508,0-2.801-0.539-3.877-1.615C85.477,17.406,84.938,16.122,84.938,14.628z
		 M88.836,14.628c0,0.431,0.154,0.801,0.464,1.109c0.309,0.309,0.686,0.463,1.131,0.463c0.444,0,0.821-0.154,1.13-0.463
		c0.309-0.309,0.464-0.679,0.464-1.109c0-0.445-0.155-0.822-0.464-1.131c-0.309-0.309-0.686-0.463-1.13-0.463
		c-0.445,0-0.822,0.154-1.131,0.463C88.991,13.806,88.836,14.183,88.836,14.628z"/>
	<path fill="#FFFFFF" d="M102.88,9.373h3.92v2.305c0,0.704-0.101,1.249-0.302,1.637s-0.524,0.732-0.97,1.034
		c0.445,0.273,0.769,0.603,0.97,0.991s0.302,0.912,0.302,1.572v2.951h-3.92v-3.166c0-0.718-0.252-1.077-0.754-1.077
		c-0.488,0-0.732,0.309-0.732,0.926v3.317h-3.941v-2.8c0-0.675,0.121-1.21,0.366-1.605c0.243-0.395,0.646-0.765,1.206-1.109
		c-0.561-0.359-0.963-0.747-1.206-1.163c-0.245-0.417-0.366-0.969-0.366-1.659V9.373h3.941v2.649c0,0.287,0.064,0.517,0.193,0.689
		c0.13,0.172,0.302,0.258,0.518,0.258c0.517,0,0.775-0.315,0.775-0.947V9.373z"/>
</g>
<g>
</g>
<g>
</g>
<g>
</g>
<g>
</g>
<g>
</g>
<g>
</g>
</svg>
