<?xml version="1.0" encoding="utf-8"?>
<!-- Generator: Adobe Illustrator 17.0.0, SVG Export Plug-In . SVG Version: 6.00 Build 0)  -->
<!DOCTYPE svg PUBLIC "-//W3C//DTD SVG 1.0//EN" "http://www.w3.org/TR/2001/REC-SVG-20010904/DTD/svg10.dtd">
<svg version="1.0" id="Layer_1" xmlns="http://www.w3.org/2000/svg" xmlns:xlink="http://www.w3.org/1999/xlink" x="0px" y="0px"
	 width="131.517px" height="20.515px" viewBox="0 0 131.517 20.515" enable-background="new 0 0 131.517 20.515"
	 xml:space="preserve">
<g>
	<path fill="#FFFFFF" d="M22.546,4.892v9.782h-0.274V5.235h-0.028l-4.151,9.439h-0.301l-4.151-9.439h-0.027v9.439H13.34V4.892h0.452
		l4.137,9.426h0.027l4.138-9.426H22.546z"/>
	<path fill="#FFFFFF" d="M29.108,14.674v-1.74h-0.027c-0.128,0.548-0.409,1-0.842,1.356c-0.434,0.356-0.998,0.535-1.692,0.535
		c-0.366,0-0.701-0.053-1.007-0.158c-0.306-0.105-0.571-0.265-0.794-0.479c-0.224-0.214-0.397-0.479-0.521-0.794
		c-0.124-0.315-0.185-0.678-0.185-1.089V7.632h0.274v4.631c0,0.411,0.06,0.76,0.178,1.048s0.281,0.525,0.486,0.712
		c0.206,0.188,0.443,0.324,0.712,0.411s0.555,0.13,0.856,0.13c0.42,0,0.79-0.08,1.109-0.24c0.32-0.16,0.587-0.375,0.802-0.644
		c0.214-0.27,0.376-0.583,0.486-0.938c0.109-0.356,0.164-0.73,0.164-1.124V7.632h0.274v7.042H29.108z"/>
	<path fill="#FFFFFF" d="M35.314,8.81c-0.11-0.247-0.265-0.45-0.466-0.609c-0.201-0.16-0.441-0.276-0.719-0.35
		c-0.279-0.073-0.587-0.109-0.925-0.109c-0.493,0-0.881,0.066-1.165,0.199s-0.493,0.283-0.63,0.452
		c-0.137,0.169-0.224,0.335-0.26,0.5c-0.037,0.164-0.055,0.279-0.055,0.342c0,0.347,0.071,0.614,0.212,0.802
		c0.142,0.187,0.331,0.331,0.568,0.431c0.247,0.101,0.514,0.188,0.802,0.26c0.288,0.073,0.623,0.16,1.007,0.261
		c0.274,0.073,0.545,0.148,0.815,0.226s0.512,0.185,0.726,0.322c0.215,0.137,0.388,0.311,0.521,0.521
		c0.132,0.21,0.198,0.484,0.198,0.822c0,0.356-0.075,0.658-0.226,0.904c-0.15,0.247-0.347,0.448-0.589,0.603
		c-0.242,0.155-0.516,0.267-0.822,0.335c-0.306,0.068-0.609,0.103-0.911,0.103c-0.941,0-1.651-0.206-2.13-0.617
		s-0.719-1.06-0.719-1.945h0.274c0,0.794,0.221,1.377,0.665,1.747c0.443,0.37,1.08,0.555,1.911,0.555
		c0.255,0,0.518-0.03,0.788-0.089c0.269-0.059,0.514-0.155,0.733-0.288s0.399-0.304,0.541-0.514s0.212-0.466,0.212-0.767
		c0-0.311-0.071-0.562-0.212-0.754c-0.142-0.191-0.324-0.349-0.548-0.473c-0.224-0.123-0.482-0.221-0.774-0.294
		c-0.292-0.073-0.589-0.146-0.891-0.219c-0.338-0.082-0.635-0.16-0.891-0.233c-0.256-0.073-0.484-0.155-0.685-0.247
		c-0.292-0.127-0.507-0.306-0.644-0.534c-0.137-0.228-0.206-0.534-0.206-0.918c0-0.192,0.041-0.393,0.123-0.603
		c0.083-0.21,0.219-0.402,0.411-0.576c0.192-0.173,0.438-0.315,0.74-0.425c0.301-0.109,0.671-0.164,1.11-0.164
		c0.785,0,1.406,0.178,1.863,0.534c0.457,0.356,0.685,0.927,0.685,1.712h-0.274C35.479,9.359,35.424,9.057,35.314,8.81z"/>
	<path fill="#FFFFFF" d="M37.232,6.276V4.892h0.274v1.384H37.232z M37.232,14.674V7.632h0.274v7.042H37.232z"/>
	<path fill="#FFFFFF" d="M44.397,13.338c-0.155,0.315-0.358,0.583-0.609,0.802c-0.252,0.219-0.544,0.388-0.877,0.507
		c-0.334,0.119-0.701,0.178-1.103,0.178c-0.503,0-0.948-0.094-1.336-0.281c-0.388-0.187-0.715-0.44-0.979-0.76
		c-0.265-0.319-0.466-0.692-0.603-1.116c-0.137-0.425-0.206-0.879-0.206-1.363c0-0.511,0.066-0.998,0.199-1.459
		c0.132-0.461,0.333-0.868,0.603-1.219s0.612-0.632,1.027-0.843c0.416-0.21,0.902-0.315,1.459-0.315c0.329,0,0.644,0.05,0.945,0.15
		c0.302,0.101,0.57,0.247,0.809,0.438c0.237,0.192,0.436,0.432,0.596,0.719c0.159,0.288,0.263,0.619,0.309,0.993h-0.274
		c-0.055-0.347-0.155-0.646-0.302-0.897c-0.146-0.251-0.324-0.461-0.534-0.63s-0.447-0.294-0.712-0.377
		c-0.266-0.082-0.544-0.123-0.836-0.123c-0.558,0-1.03,0.107-1.418,0.322c-0.389,0.215-0.699,0.493-0.932,0.836
		c-0.233,0.342-0.402,0.726-0.507,1.151c-0.105,0.424-0.158,0.842-0.158,1.253c0,0.429,0.062,0.84,0.185,1.233
		c0.123,0.393,0.303,0.74,0.541,1.041c0.237,0.302,0.534,0.542,0.891,0.719c0.356,0.178,0.768,0.268,1.233,0.268
		c0.347,0,0.671-0.053,0.973-0.158c0.301-0.105,0.568-0.258,0.801-0.459c0.233-0.201,0.423-0.44,0.569-0.719
		c0.146-0.278,0.232-0.596,0.26-0.952h0.274C44.648,12.669,44.553,13.023,44.397,13.338z"/>
	<path fill="#FFFFFF" d="M55.139,9.441v0.274h-5.206v4.959h-0.274V4.892h6.028v0.274h-5.754v4.274H55.139z"/>
	<path fill="#FFFFFF" d="M56.097,9.762c0.138-0.443,0.341-0.833,0.61-1.171c0.269-0.338,0.6-0.61,0.993-0.815
		c0.393-0.206,0.849-0.308,1.369-0.308c0.512,0,0.964,0.103,1.356,0.308s0.724,0.478,0.993,0.815s0.473,0.728,0.61,1.171
		c0.137,0.443,0.205,0.907,0.205,1.391c0,0.484-0.068,0.948-0.205,1.391c-0.138,0.443-0.341,0.833-0.61,1.171
		s-0.601,0.607-0.993,0.808c-0.393,0.201-0.849,0.302-1.37,0.302c-0.511,0-0.963-0.101-1.355-0.302
		c-0.394-0.201-0.725-0.47-0.993-0.808c-0.27-0.338-0.473-0.728-0.61-1.171c-0.137-0.443-0.205-0.906-0.205-1.391
		C55.892,10.669,55.96,10.206,56.097,9.762z M56.351,12.441c0.123,0.411,0.308,0.774,0.555,1.089
		c0.246,0.315,0.55,0.566,0.911,0.753c0.36,0.188,0.778,0.281,1.253,0.281c0.466,0,0.879-0.094,1.24-0.281
		c0.36-0.187,0.664-0.438,0.911-0.753c0.246-0.315,0.432-0.678,0.555-1.089c0.123-0.411,0.186-0.84,0.186-1.288
		c0-0.438-0.062-0.863-0.186-1.274s-0.309-0.774-0.555-1.089c-0.247-0.315-0.551-0.568-0.911-0.76
		c-0.361-0.192-0.774-0.288-1.24-0.288c-0.475,0-0.893,0.096-1.253,0.288c-0.361,0.192-0.665,0.445-0.911,0.76
		c-0.247,0.315-0.432,0.678-0.555,1.089s-0.186,0.835-0.186,1.274C56.165,11.601,56.228,12.03,56.351,12.441z"/>
	<path fill="#FFFFFF" d="M63.372,14.674V7.632h0.273v1.74h0.027c0.064-0.265,0.165-0.514,0.302-0.747s0.319-0.436,0.548-0.61
		c0.229-0.173,0.5-0.311,0.815-0.411c0.314-0.1,0.683-0.146,1.103-0.137v0.274c-0.484-0.027-0.902,0.039-1.254,0.199
		s-0.642,0.379-0.869,0.658c-0.229,0.278-0.397,0.601-0.508,0.966c-0.109,0.365-0.164,0.74-0.164,1.123v3.987H63.372z"/>
	<path fill="#FFFFFF" d="M77.264,14.4v0.274h-6.548V4.892h6.493v0.274h-6.22v4.274h5.85v0.274h-5.85V14.4H77.264z"/>
	<path fill="#FFFFFF" d="M83.072,7.632l-2.658,7.042h-0.342l-2.891-7.042h0.314l2.727,6.768h0.027l2.521-6.768H83.072z"/>
	<path fill="#FFFFFF" d="M83.695,12.53c0.104,0.407,0.267,0.76,0.486,1.062c0.219,0.302,0.502,0.539,0.849,0.712
		c0.348,0.174,0.772,0.261,1.274,0.261c0.74,0,1.354-0.194,1.843-0.583s0.792-0.97,0.911-1.747h0.273
		c-0.101,0.822-0.424,1.459-0.973,1.911c-0.548,0.452-1.224,0.678-2.027,0.678c-0.548,0.009-1.016-0.078-1.404-0.26
		c-0.388-0.183-0.705-0.441-0.952-0.774c-0.246-0.333-0.429-0.726-0.548-1.178s-0.178-0.938-0.178-1.459
		c0-0.584,0.086-1.105,0.26-1.562s0.402-0.843,0.686-1.158c0.282-0.315,0.611-0.555,0.986-0.719c0.374-0.165,0.758-0.247,1.15-0.247
		c0.548,0,1.021,0.105,1.418,0.315c0.397,0.21,0.722,0.489,0.973,0.836s0.434,0.744,0.548,1.192
		c0.114,0.447,0.162,0.913,0.145,1.397h-5.892C83.532,11.683,83.59,12.124,83.695,12.53z M88.963,9.708
		c-0.119-0.388-0.295-0.728-0.527-1.021c-0.233-0.292-0.523-0.523-0.87-0.692c-0.348-0.169-0.749-0.253-1.206-0.253
		c-0.384,0-0.742,0.073-1.075,0.219c-0.334,0.146-0.626,0.358-0.877,0.637c-0.251,0.278-0.454,0.614-0.609,1.007
		s-0.247,0.835-0.274,1.329h5.617C89.141,10.505,89.081,10.096,88.963,9.708z"/>
	<path fill="#FFFFFF" d="M90.512,14.674V7.632h0.273v1.74h0.027c0.064-0.265,0.165-0.514,0.302-0.747s0.319-0.436,0.548-0.61
		c0.229-0.173,0.5-0.311,0.815-0.411c0.314-0.1,0.683-0.146,1.103-0.137v0.274c-0.484-0.027-0.902,0.039-1.254,0.199
		s-0.642,0.379-0.869,0.658c-0.229,0.278-0.397,0.601-0.508,0.966c-0.109,0.365-0.164,0.74-0.164,1.123v3.987H90.512z"/>
	<path fill="#FFFFFF" d="M99.292,7.632l-3.247,8.467c-0.091,0.237-0.201,0.422-0.328,0.555c-0.129,0.132-0.27,0.23-0.425,0.295
		c-0.155,0.063-0.327,0.103-0.514,0.116c-0.188,0.014-0.387,0.021-0.597,0.021v-0.274c0.237,0,0.44-0.007,0.61-0.021
		c0.169-0.014,0.314-0.05,0.438-0.11c0.123-0.059,0.232-0.15,0.328-0.274c0.096-0.123,0.186-0.29,0.268-0.5l0.507-1.301
		l-2.932-6.974h0.287l2.795,6.672l2.521-6.672H99.292z"/>
	<path fill="#FFFFFF" d="M99.717,9.762c0.138-0.443,0.341-0.833,0.61-1.171c0.269-0.338,0.6-0.61,0.993-0.815
		c0.393-0.206,0.849-0.308,1.369-0.308c0.512,0,0.964,0.103,1.356,0.308s0.724,0.478,0.993,0.815s0.473,0.728,0.61,1.171
		c0.137,0.443,0.205,0.907,0.205,1.391c0,0.484-0.068,0.948-0.205,1.391c-0.138,0.443-0.341,0.833-0.61,1.171
		s-0.601,0.607-0.993,0.808c-0.393,0.201-0.849,0.302-1.37,0.302c-0.511,0-0.963-0.101-1.355-0.302
		c-0.394-0.201-0.725-0.47-0.993-0.808c-0.27-0.338-0.473-0.728-0.61-1.171c-0.137-0.443-0.205-0.906-0.205-1.391
		C99.512,10.669,99.58,10.206,99.717,9.762z M99.971,12.441c0.123,0.411,0.308,0.774,0.555,1.089
		c0.246,0.315,0.55,0.566,0.911,0.753c0.36,0.188,0.778,0.281,1.253,0.281c0.466,0,0.879-0.094,1.24-0.281
		c0.36-0.187,0.664-0.438,0.911-0.753c0.246-0.315,0.432-0.678,0.555-1.089c0.123-0.411,0.186-0.84,0.186-1.288
		c0-0.438-0.062-0.863-0.186-1.274s-0.309-0.774-0.555-1.089c-0.247-0.315-0.551-0.568-0.911-0.76
		c-0.361-0.192-0.774-0.288-1.24-0.288c-0.475,0-0.893,0.096-1.253,0.288c-0.361,0.192-0.665,0.445-0.911,0.76
		c-0.247,0.315-0.432,0.678-0.555,1.089s-0.186,0.835-0.186,1.274C99.785,11.601,99.848,12.03,99.971,12.441z"/>
	<path fill="#FFFFFF" d="M107.266,7.632v1.74h0.027c0.064-0.274,0.167-0.525,0.309-0.753c0.142-0.229,0.319-0.429,0.534-0.603
		c0.215-0.173,0.464-0.308,0.747-0.404c0.282-0.096,0.598-0.144,0.945-0.144c0.364,0,0.7,0.055,1.007,0.164
		c0.306,0.11,0.57,0.272,0.794,0.487c0.224,0.214,0.397,0.479,0.521,0.794c0.124,0.315,0.186,0.678,0.186,1.089v4.672h-0.274v-4.63
		c0-0.411-0.06-0.761-0.178-1.048c-0.119-0.288-0.281-0.525-0.486-0.712c-0.206-0.187-0.443-0.324-0.713-0.411
		c-0.27-0.087-0.555-0.13-0.855-0.13c-0.421,0-0.791,0.08-1.11,0.24s-0.587,0.375-0.801,0.644c-0.215,0.27-0.377,0.582-0.487,0.938
		c-0.109,0.356-0.164,0.73-0.164,1.123v3.987h-0.273V7.632H107.266z"/>
	<path fill="#FFFFFF" d="M113.876,12.53c0.104,0.407,0.267,0.76,0.486,1.062c0.219,0.302,0.502,0.539,0.849,0.712
		c0.348,0.174,0.772,0.261,1.274,0.261c0.74,0,1.354-0.194,1.843-0.583s0.792-0.97,0.911-1.747h0.273
		c-0.101,0.822-0.424,1.459-0.973,1.911c-0.548,0.452-1.224,0.678-2.027,0.678c-0.548,0.009-1.016-0.078-1.404-0.26
		c-0.388-0.183-0.705-0.441-0.952-0.774c-0.246-0.333-0.429-0.726-0.548-1.178s-0.178-0.938-0.178-1.459
		c0-0.584,0.086-1.105,0.26-1.562s0.402-0.843,0.686-1.158c0.282-0.315,0.611-0.555,0.986-0.719c0.374-0.165,0.758-0.247,1.15-0.247
		c0.548,0,1.021,0.105,1.418,0.315c0.397,0.21,0.722,0.489,0.973,0.836s0.434,0.744,0.548,1.192
		c0.114,0.447,0.162,0.913,0.145,1.397h-5.892C113.713,11.683,113.771,12.124,113.876,12.53z M119.144,9.708
		c-0.119-0.388-0.295-0.728-0.527-1.021c-0.233-0.292-0.523-0.523-0.87-0.692c-0.348-0.169-0.749-0.253-1.206-0.253
		c-0.384,0-0.742,0.073-1.075,0.219c-0.334,0.146-0.626,0.358-0.877,0.637c-0.251,0.278-0.454,0.614-0.609,1.007
		s-0.247,0.835-0.274,1.329h5.617C119.321,10.505,119.262,10.096,119.144,9.708z"/>
</g>
<g>
</g>
<g>
</g>
<g>
</g>
<g>
</g>
<g>
</g>
<g>
</g>
<g>
</g>
<g>
</g>
<g>
</g>
<g>
</g>
<g>
</g>
<g>
</g>
<g>
</g>
<g>
</g>
<g>
</g>
</svg>
